<svg width="64" height="64" viewBox="0 0 64 64" fill="none" xmlns="http://www.w3.org/2000/svg">
<path d="M54.799 53.565L57.393 48.155L50 44.61V37H38V61H44V48L54.799 53.565Z" fill="#00B4D8"></path>
<path d="M57.39 48.16L54.8 53.57L44 48V44C43.2044 44 42.4413 44.3161 41.8787 44.8787C41.3161 45.4413 41 46.2044 41 47V52C41 52.7956 41.3161 53.5587 41.8787 54.1213C42.4413 54.6839 43.2044 55 44 55V61H38V37H50V40H49.71C48.8747 39.9988 48.0635 40.2799 47.408 40.7977C46.7525 41.3154 46.2913 42.0395 46.0991 42.8524C45.9068 43.6653 45.9949 44.5193 46.3491 45.2758C46.7032 46.0323 47.3026 46.647 48.05 47.02L50.68 48.34C51.47 48.7342 52.3749 48.833 53.2313 48.6184C54.0877 48.4038 54.8392 47.8901 55.35 47.17L57.39 48.16Z" fill="#0096C7"></path>
<path d="M55.929 10.74L51.62 17.74C50.8194 19.0417 49.6988 20.1167 48.3648 20.8625C47.0309 21.6082 45.5282 21.9998 44 22V22C42.4719 21.9999 40.9692 21.6085 39.6351 20.8632C38.3011 20.1178 37.1801 19.0433 36.379 17.742L32.071 10.742C31.7786 10.2665 31.3186 9.91783 30.7817 9.76491C30.2448 9.61199 29.6701 9.6659 29.171 9.916V9.916C28.8947 10.0541 28.65 10.2482 28.4526 10.4858C28.2552 10.7235 28.1092 10.9995 28.0241 11.2965C27.9389 11.5935 27.9163 11.9049 27.9578 12.211C27.9993 12.5172 28.1039 12.8114 28.265 13.075L33.826 22.175C36.5548 26.6385 37.9991 31.7684 38 37H50C49.9997 31.7682 51.4433 26.6378 54.172 22.174L59.733 13.074C59.8941 12.8104 59.9987 12.5162 60.0402 12.21C60.0817 11.9039 60.0591 11.5925 59.9739 11.2955C59.8888 10.9985 59.7428 10.7225 59.5454 10.4848C59.348 10.2472 59.1033 10.0531 58.827 9.915V9.915C58.3282 9.66539 57.7541 9.61165 57.2177 9.76435C56.6813 9.91706 56.2215 10.2651 55.929 10.74V10.74Z" fill="#ADE8F4"></path>
<path d="M59.73 13.07L54.17 22.17C52.8074 24.3908 51.7607 26.7905 51.06 29.3C50.3567 31.8062 50 34.397 50 37H38C38.0005 31.7672 36.5576 26.6357 33.83 22.17L28.27 13.07C28.0563 12.7206 27.9422 12.3195 27.94 11.91C27.9396 11.3582 28.1466 10.8263 28.52 10.42L37.68 22.85C38.399 23.8264 39.3375 24.6202 40.4196 25.1674C41.5018 25.7145 42.6974 25.9997 43.91 26C45.1708 26.0034 46.4133 25.698 47.5289 25.1106C48.6445 24.5231 49.5994 23.6715 50.31 22.63L58.96 9.99C59.215 10.1396 59.4376 10.3385 59.6148 10.5752C59.792 10.8119 59.9201 11.0815 59.9918 11.3683C60.0635 11.6551 60.0773 11.9533 60.0324 12.2455C59.9874 12.5377 59.8846 12.818 59.73 13.07Z" fill="#48CAE4"></path>
<path d="M44 26C43.2044 26 42.4413 25.6839 41.8787 25.1213C41.3161 24.5587 41 23.7956 41 23V20H47V23C47 23.7956 46.6839 24.5587 46.1213 25.1213C45.5587 25.6839 44.7956 26 44 26Z" fill="#EDB88E"></path>
<path d="M44 10C42.9391 10 41.9217 10.4214 41.1716 11.1716C40.4214 11.9217 40 12.9391 40 14H48C48 12.9391 47.5786 11.9217 46.8284 11.1716C46.0783 10.4214 45.0609 10 44 10V10Z" fill="#00B4D8"></path>
<path d="M32.071 10.74C31.751 10.2591 31.257 9.92111 30.6929 9.79703C30.1288 9.67294 29.5386 9.77247 29.0464 10.0747C28.5541 10.3769 28.1983 10.8582 28.0537 11.4174C27.9091 11.9766 27.987 12.5701 28.271 13.073L30.038 15.966L33.29 12.714L32.071 10.74Z" fill="#F9DBAF"></path>
<path d="M58.827 9.914C58.3279 9.6639 57.7532 9.60999 57.2163 9.76291C56.6794 9.91583 56.2194 10.2645 55.927 10.74L54.712 12.714L57.963 15.966L59.731 13.073C59.8922 12.8095 59.9969 12.5154 60.0385 12.2094C60.0801 11.9033 60.0578 11.5919 59.9728 11.295C59.8878 10.998 59.7421 10.7219 59.5448 10.4842C59.3476 10.2465 59.1032 10.0523 58.827 9.914V9.914Z" fill="#F9DBAF"></path>
<path d="M31.52 14.48L30.03 15.97L28.27 13.07C28.0179 12.6612 27.9059 12.1813 27.951 11.7031C27.9962 11.2249 28.1959 10.7745 28.52 10.42L31.52 14.48Z" fill="#EDB88E"></path>
<path d="M59.73 13.07L57.97 15.97L56.13 14.13L58.96 9.99C59.215 10.1396 59.4376 10.3385 59.6148 10.5752C59.792 10.8119 59.9201 11.0815 59.9918 11.3683C60.0635 11.6551 60.0773 11.9533 60.0324 12.2455C59.9874 12.5377 59.8846 12.818 59.73 13.07V13.07Z" fill="#EDB88E"></path>
<path d="M45 24C45.6859 23.9985 46.3603 23.823 46.96 23.49C46.8374 24.2334 46.4396 24.9034 45.8456 25.3668C45.2517 25.8303 44.505 26.0534 43.7542 25.9917C43.0033 25.9299 42.3032 25.5879 41.7929 25.0337C41.2826 24.4794 40.9996 23.7534 41 23V20H47C46.9971 20.8846 46.7011 21.7432 46.1583 22.4416C45.6155 23.1401 44.8565 23.6389 44 23.86C44.3263 23.9478 44.6622 23.9948 45 24V24Z" fill="#DA9367"></path>
<path d="M44 22C42.9391 22 41.9217 21.5786 41.1716 20.8284C40.4214 20.0783 40 19.0609 40 18V14H48V18C48 19.0609 47.5786 20.0783 46.8284 20.8284C46.0783 21.5786 45.0609 22 44 22Z" fill="#F9DBAF"></path>
<path d="M47.64 19.64C47.2656 20.4746 46.6161 21.1554 45.8001 21.5687C44.984 21.982 44.0509 22.1028 43.1565 21.9108C42.2622 21.7188 41.4608 21.2257 40.8863 20.5139C40.3118 19.8021 39.9989 18.9147 40 18V14H42V16C42 17.0609 42.4214 18.0783 43.1716 18.8284C43.9217 19.5786 44.9391 20 46 20C46.5662 19.9995 47.1256 19.8767 47.64 19.64V19.64Z" fill="#EDB88E"></path>
<path d="M48 14H40C39.9992 13.2493 40.2111 12.5136 40.6111 11.8783C41.011 11.243 41.5827 10.7339 42.26 10.41C42.5451 11.1714 43.0562 11.8275 43.7246 12.2904C44.393 12.7533 45.1869 13.0009 46 13C46.6043 13.0032 47.2007 12.8627 47.74 12.59C47.9135 13.0398 48.0017 13.5179 48 14V14Z" fill="#0096C7"></path>
<path d="M57.3938 48.1559L61.0006 49.8855L57.1091 58.0007C56.1526 57.542 55.4174 56.7221 55.0653 55.7213C54.7133 54.7206 54.7732 53.621 55.2319 52.6644L57.3938 48.1559Z" fill="#EDB88E"></path>
<path d="M44 57V61H35C35 59.9391 35.4214 58.9217 36.1716 58.1716C36.9217 57.4214 37.9391 57 39 57H44Z" fill="#EDB88E"></path>
<path d="M59.017 48.934L57.406 52.3C57.1734 52.7815 56.8159 53.1917 56.3707 53.4879C55.9255 53.7841 55.409 53.9555 54.875 53.984C54.7876 54.8021 54.9554 55.6272 55.3554 56.3461C55.7553 57.0651 56.3679 57.6428 57.109 58L61 49.885L59.017 48.934Z" fill="#DA9367"></path>
<path d="M40 59C39.45 58.9986 38.9111 58.8454 38.4425 58.5575C37.9739 58.2696 37.5938 57.858 37.344 57.368C36.6458 57.6844 36.0535 58.1952 35.6379 58.8393C35.2222 59.4833 35.0008 60.2335 35 61H44V59H40Z" fill="#DA9367"></path>
<path d="M25.06 37V61H19.06V51H7.06V45H13.06V37H25.06Z" fill="#EF5350"></path>
<path d="M23 41V53C23.0016 53.5299 23.2128 54.0377 23.5875 54.4125C23.9623 54.7872 24.4701 54.9984 25 55H25.06V61H19.06V51H7.06V45H13.06V37H25.06V39H25C24.4701 39.0016 23.9623 39.2128 23.5875 39.5875C23.2128 39.9623 23.0016 40.4701 23 41V41Z" fill="#E53935"></path>
<path d="M17.06 44V46C17.06 46.7956 16.7439 47.5587 16.1813 48.1213C15.6187 48.6839 14.8556 49 14.06 49H6V51H19.06V42C18.5296 42 18.0209 42.2107 17.6458 42.5858C17.2707 42.9609 17.06 43.4696 17.06 44Z" fill="#C62828"></path>
<path d="M37.8 24.81C37.846 25.2071 37.7913 25.6095 37.641 25.98C37.4908 26.3504 37.2497 26.6771 36.94 26.93L36.88 26.98L33.22 29.98C32.2295 30.7926 30.9653 31.1946 29.6874 31.1035C28.4095 31.0123 27.2151 30.4349 26.35 29.49L25.06 28.07V37H13.06C13.0605 31.7672 11.6176 26.6357 8.89 22.17L3.33 13.07C3.07791 12.6612 2.96593 12.1813 3.01105 11.7031C3.05616 11.2249 3.2559 10.7745 3.58 10.42C3.86476 10.0984 4.23629 9.86571 4.65 9.75C5.12963 9.63153 5.63465 9.67065 6.09032 9.86156C6.54598 10.0525 6.92806 10.385 7.18 10.81L11.44 17.74C12.24 19.0423 13.3605 20.1177 14.6946 20.8635C16.0286 21.6093 17.5316 22.0006 19.06 22H24.02C24.5648 21.9985 25.1059 22.0899 25.62 22.27C26.5442 22.5747 27.3558 23.1494 27.95 23.92L30.12 26.69L34.19 23.41C34.4304 23.2144 34.7088 23.0709 35.0076 22.9887C35.3064 22.9065 35.619 22.8873 35.9257 22.9325C36.2323 22.9776 36.5261 23.0861 36.7885 23.2509C37.051 23.4157 37.2762 23.6334 37.45 23.89C37.6388 24.1641 37.7588 24.4797 37.8 24.81V24.81Z" fill="#FF7373"></path>
<path d="M37.8 24.81C37.846 25.2071 37.7913 25.6095 37.641 25.98C37.4908 26.3504 37.2497 26.6771 36.94 26.93L36.88 26.98L33.22 29.98C32.2295 30.7926 30.9653 31.1946 29.6874 31.1035C28.4095 31.0123 27.2151 30.4349 26.35 29.49L25.06 28.07V37H13.06C13.0605 31.7672 11.6176 26.6357 8.89 22.17L3.33 13.07C3.07791 12.6612 2.96593 12.1813 3.01105 11.7031C3.05616 11.2249 3.2559 10.7745 3.58 10.42L12.74 22.85C13.459 23.8264 14.3975 24.6202 15.4796 25.1674C16.5618 25.7145 17.7574 25.9997 18.97 26C20.2305 25.9972 21.4719 25.692 22.59 25.11L22.606 25.102C23.06 24.8466 23.5844 24.7448 24.1011 24.8116C24.6177 24.8785 25.0989 25.1105 25.473 25.473L28.06 28.06C28.5894 28.5907 29.2982 28.9041 30.0471 28.9383C30.7959 28.9726 31.5304 28.7252 32.106 28.245L34.42 26.32C35.4239 25.4839 36.1408 24.3544 36.47 23.09C36.8676 23.2555 37.2083 23.5335 37.45 23.89C37.6388 24.1641 37.7588 24.4797 37.8 24.81V24.81Z" fill="#EF5350"></path>
<path d="M37.45 23.888C37.2758 23.6318 37.0501 23.4147 36.7874 23.2504C36.5248 23.0861 36.2307 22.9783 35.9241 22.9338C35.6175 22.8893 35.305 22.9091 35.0064 22.992C34.7079 23.0748 34.4299 23.2189 34.19 23.415L32.534 24.748L35.146 28.4L36.935 26.93C37.3826 26.5769 37.6831 26.0702 37.7782 25.5082C37.8734 24.9461 37.7564 24.3687 37.45 23.888V23.888Z" fill="#F9DBAF"></path>
<path d="M19.061 26C19.8567 26 20.6197 25.6839 21.1823 25.1213C21.7449 24.5587 22.061 23.7956 22.061 23V20H16.061V23C16.061 23.7956 16.3771 24.5587 16.9397 25.1213C17.5023 25.6839 18.2654 26 19.061 26Z" fill="#F9DBAF"></path>
<path d="M19.061 22C20.1219 22 21.1393 21.5786 21.8894 20.8284C22.6396 20.0783 23.061 19.0609 23.061 18V14H15.061V18C15.061 19.0609 15.4824 20.0783 16.2326 20.8284C16.9827 21.5786 18.0001 22 19.061 22Z" fill="#F9DBAF"></path>
<path d="M19.061 10H23.061V14H15.061C15.061 12.9391 15.4824 11.9217 16.2326 11.1716C16.9827 10.4214 18.0001 10 19.061 10Z" fill="#00B4D8"></path>
<path d="M4.234 9.914C4.73308 9.6639 5.30778 9.60999 5.84467 9.76291C6.38155 9.91583 6.8416 10.2645 7.134 10.74L8.349 12.714L5.1 15.966L3.328 13.073C3.16688 12.8094 3.06227 12.5152 3.0208 12.209C2.97932 11.9029 3.00189 11.5915 3.08706 11.2945C3.17223 10.9975 3.31816 10.7215 3.51559 10.4838C3.71302 10.2462 3.95766 10.0521 4.234 9.914V9.914Z" fill="#F9DBAF"></path>
<path d="M3.061 54L3.061 45H7.061V50C7.061 51.0609 6.63957 52.0783 5.88943 52.8284C5.13928 53.5786 4.12187 54 3.061 54V54Z" fill="#EDB88E"></path>
<path d="M28.061 61H19.061V57H24.061C25.1219 57 26.1393 57.4214 26.8894 58.1716C27.6396 58.9217 28.061 59.9391 28.061 61Z" fill="#EDB88E"></path>
<path d="M20.06 24C20.7459 23.9985 21.4203 23.823 22.02 23.49C21.8974 24.2334 21.4996 24.9034 20.9056 25.3668C20.3117 25.8303 19.565 26.0534 18.8142 25.9917C18.0633 25.9299 17.3632 25.5879 16.8529 25.0337C16.3426 24.4794 16.0596 23.7534 16.06 23V20H22.06C22.0571 20.8846 21.7611 21.7432 21.2183 22.4416C20.6755 23.1401 19.9165 23.6389 19.06 23.86C19.3863 23.9478 19.7222 23.9948 20.06 24V24Z" fill="#DA9367"></path>
<path d="M22.7 19.64C22.3256 20.4746 21.6761 21.1554 20.8601 21.5687C20.044 21.982 19.1109 22.1028 18.2165 21.9108C17.3222 21.7188 16.5208 21.2257 15.9463 20.5139C15.3718 19.8021 15.0589 18.9147 15.06 18V14H17.06V16C17.06 17.0609 17.4814 18.0783 18.2316 18.8284C18.9817 19.5786 19.9991 20 21.06 20C21.6262 19.9995 22.1856 19.8767 22.7 19.64Z" fill="#EDB88E"></path>
<path d="M8.35 12.71L6.58 14.49L3.58 10.42C3.76031 10.2082 3.98135 10.0347 4.23 9.91C4.7301 9.66328 5.30414 9.61161 5.84026 9.76505C6.37638 9.91849 6.83616 10.2661 7.13 10.74L8.35 12.71Z" fill="#F9DBAF"></path>
<path d="M6.58 14.49L5.1 15.97L3.33 13.07C3.07791 12.6612 2.96593 12.1813 3.01105 11.7031C3.05616 11.2249 3.2559 10.7745 3.58 10.42L6.58 14.49Z" fill="#EDB88E"></path>
<path d="M36.47 23.09C36.1408 24.3544 35.4239 25.4839 34.42 26.32L33.94 26.72L32.53 24.75L34.19 23.41C34.5039 23.1522 34.8828 22.9859 35.285 22.9295C35.6873 22.873 36.0973 22.9286 36.47 23.09V23.09Z" fill="#F9DBAF"></path>
<path d="M36.94 26.93L35.15 28.4L33.94 26.72L34.42 26.32C35.4239 25.4839 36.1408 24.3544 36.47 23.09C36.8676 23.2555 37.2083 23.5335 37.45 23.89C37.7564 24.37 37.8738 24.9465 37.7796 25.5081C37.6854 26.0696 37.3862 26.5763 36.94 26.93V26.93Z" fill="#EDB88E"></path>
<path d="M20 12C19.4549 11.9986 18.9206 11.8481 18.4549 11.5649C17.9893 11.2816 17.6099 10.8764 17.358 10.393C16.6724 10.7144 16.0924 11.2242 15.6856 11.8629C15.2789 12.5016 15.0623 13.2428 15.061 14H23.061V12H20Z" fill="#0096C7"></path>
<path d="M23.06 59C23.61 58.9986 24.1489 58.8454 24.6175 58.5575C25.0861 58.2696 25.4662 57.858 25.716 57.368C26.4142 57.6844 27.0065 58.1952 27.4221 58.8393C27.8378 59.4833 28.0592 60.2335 28.06 61H19.06V59H23.06Z" fill="#DA9367"></path>
<path d="M5.061 49C5.06244 49.55 5.21555 50.0889 5.50348 50.5575C5.79141 51.0261 6.20301 51.4062 6.693 51.656C6.37655 52.3542 5.86578 52.9465 5.22172 53.3621C4.57766 53.7778 3.82754 53.9992 3.061 54V45H5.061V49Z" fill="#DA9367"></path>
<path d="M61.433 48.983L57.826 47.253L51 43.98V37C51.0001 31.9512 52.3921 27.0001 55.023 22.691C55.119 22.5342 55.1698 22.3539 55.17 22.17V22.16C55.168 21.9392 55.0931 21.7253 54.9568 21.5516C54.8206 21.3779 54.6307 21.2542 54.4167 21.1998C54.2028 21.1453 53.9768 21.1632 53.7741 21.2506C53.5714 21.338 53.4033 21.49 53.296 21.683C50.6677 26.0094 49.1997 30.9405 49.034 36H38.957C38.8639 33.2015 38.3706 30.4307 37.492 27.772L37.57 27.707C38.2106 27.1935 38.6372 26.4599 38.7666 25.6491C38.896 24.8383 38.719 24.0084 38.27 23.321C37.9085 22.7804 37.3897 22.3639 36.7838 22.1276C36.1779 21.8914 35.514 21.8468 34.882 22C34.815 21.883 34.752 21.764 34.682 21.648L31.3 16.116L33.1 14.316L35.53 18.266C36.5936 19.9797 38.1523 21.3302 40 22.139V23C40 24.0609 40.4214 25.0783 41.1716 25.8284C41.9217 26.5786 42.9391 27 44 27C45.0609 27 46.0783 26.5786 46.8284 25.8284C47.5786 25.0783 48 24.0609 48 23V22.141C49.8482 21.3308 51.4074 19.9794 52.472 18.265L54.902 14.316L56.702 16.116L55.409 18.232C55.339 18.3441 55.292 18.469 55.2706 18.5994C55.2492 18.7298 55.2538 18.8631 55.2843 18.9917C55.3147 19.1203 55.3703 19.2416 55.4479 19.3486C55.5255 19.4556 55.6236 19.5461 55.7364 19.6149C55.8491 19.6838 55.9745 19.7296 56.1051 19.7497C56.2357 19.7699 56.369 19.7639 56.4973 19.7322C56.6256 19.7005 56.7463 19.6437 56.8525 19.565C56.9587 19.4864 57.0483 19.3875 57.116 19.274L60.586 13.595C60.8268 13.2337 60.9923 12.8275 61.0726 12.4008C61.1528 11.9741 61.1462 11.5356 61.0531 11.1114C60.9599 10.6873 60.7822 10.2864 60.5305 9.93254C60.2789 9.5787 59.9584 9.27925 59.5884 9.0521C59.2183 8.82496 58.8063 8.67478 58.3768 8.61055C57.9474 8.54632 57.5094 8.56937 57.0891 8.6783C56.6688 8.78724 56.2747 8.97983 55.9306 9.24456C55.5864 9.50928 55.2991 9.8407 55.086 10.219L50.776 17.219C50.2567 18.0515 49.5849 18.7786 48.796 19.362C48.9274 18.9198 48.996 18.4613 49 18V14C49 12.6739 48.4732 11.4021 47.5355 10.4645C46.5979 9.52678 45.3261 9 44 9C42.6739 9 41.4021 9.52678 40.4645 10.4645C39.5268 11.4021 39 12.6739 39 14C39 14.2652 39.1054 14.5196 39.2929 14.7071C39.4804 14.8946 39.7348 15 40 15H47V18C47 18.7956 46.6839 19.5587 46.1213 20.1213C45.5587 20.6839 44.7956 21 44 21C43.2043 21 42.4413 20.6839 41.8787 20.1213C41.3161 19.5587 41 18.7956 41 18C41 17.7348 40.8946 17.4804 40.7071 17.2929C40.5196 17.1054 40.2652 17 40 17C39.7348 17 39.4804 17.1054 39.2929 17.2929C39.1054 17.4804 39 17.7348 39 18C39.0068 18.4613 39.0782 18.9194 39.212 19.361C38.4239 18.7764 37.752 18.0496 37.231 17.218L32.922 10.218C32.4739 9.48746 31.754 8.96484 30.9206 8.76512C30.0872 8.56539 29.2085 8.70492 28.478 9.153C27.7475 9.60108 27.2248 10.321 27.0251 11.1544C26.8254 11.9878 26.9649 12.8665 27.413 13.597L32.975 22.697C33.032 22.79 33.082 22.887 33.136 22.982L30.286 25.277L28.742 23.3C28.1824 22.5812 27.4656 22.0001 26.6465 21.6014C25.8275 21.2027 24.9279 20.997 24.017 21H23.061V20.969C23.7069 20.1136 24.0578 19.0718 24.061 18V10C24.061 9.73478 23.9556 9.48043 23.7681 9.29289C23.5806 9.10536 23.3262 9 23.061 9H19.061C17.7354 9.00159 16.4646 9.52888 15.5272 10.4662C14.5899 11.4036 14.0626 12.6744 14.061 14C14.061 14.2652 14.1664 14.5196 14.3539 14.7071C14.5414 14.8946 14.7958 15 15.061 15H22.061V18C22.061 18.7956 21.7449 19.5587 21.1823 20.1213C20.6197 20.6839 19.8566 21 19.061 21C18.2654 21 17.5023 20.6839 16.9397 20.1213C16.3771 19.5587 16.061 18.7956 16.061 18C16.061 17.7348 15.9556 17.4804 15.7681 17.2929C15.5806 17.1054 15.3262 17 15.061 17C14.7958 17 14.5414 17.1054 14.3539 17.2929C14.1664 17.4804 14.061 17.7348 14.061 18C14.0677 18.461 14.1391 18.9188 14.273 19.36C13.4849 18.7758 12.813 18.0493 12.292 17.218L8.028 10.288C7.66352 9.6755 7.10989 9.19802 6.45049 8.92748C5.79109 8.65694 5.06163 8.60799 4.372 8.788C3.88971 8.92131 3.44494 9.16472 3.07267 9.49907C2.70041 9.83342 2.4108 10.2496 2.22664 10.7148C2.04248 11.1801 1.96879 11.6817 2.01136 12.1803C2.05394 12.6788 2.21162 13.1607 2.472 13.588L8.034 22.688C10.6682 26.997 12.0614 31.9496 12.06 37C12.06 37.2652 12.1654 37.5196 12.3529 37.7071C12.5404 37.8946 12.7948 38 13.06 38H24.06V56H20.06V43C20.06 42.7348 19.9546 42.4804 19.7671 42.2929C19.5796 42.1054 19.3252 42 19.06 42C18.7948 42 18.5404 42.1054 18.3529 42.2929C18.1654 42.4804 18.06 42.7348 18.06 43V50H8.06V46H13.06C13.3252 46 13.5796 45.8946 13.7671 45.7071C13.9546 45.5196 14.06 45.2652 14.06 45V41C14.06 40.7348 13.9546 40.4804 13.7671 40.2929C13.5796 40.1054 13.3252 40 13.06 40C12.7948 40 12.5404 40.1054 12.3529 40.2929C12.1654 40.4804 12.06 40.7348 12.06 41V44H3.06C2.79478 44 2.54043 44.1054 2.35289 44.2929C2.16536 44.4804 2.06 44.7348 2.06 45V54C2.06 54.2652 2.16536 54.5196 2.35289 54.7071C2.54043 54.8946 2.79478 55 3.06 55C4.03177 54.9987 4.9821 54.7143 5.79479 54.1815C6.60748 53.6487 7.24729 52.8906 7.636 52H18.061V61C18.061 61.2652 18.1664 61.5196 18.3539 61.7071C18.5414 61.8946 18.7958 62 19.061 62H28.061C28.3262 62 28.5806 61.8946 28.7681 61.7071C28.9556 61.5196 29.061 61.2652 29.061 61C29.0593 60.0282 28.7747 59.0779 28.242 58.2652C27.7092 57.4524 26.9514 56.8123 26.061 56.423V37V30.6C27.1293 31.5513 28.5024 32.0895 29.9326 32.1178C31.3627 32.146 32.756 31.6623 33.861 30.754L35.827 29.139C36.5991 31.6881 36.9943 34.3365 37 37V53C37 53.2652 37.1054 53.5196 37.2929 53.7071C37.4804 53.8946 37.7348 54 38 54C38.2652 54 38.5196 53.8946 38.7071 53.7071C38.8946 53.5196 39 53.2652 39 53V38H49V44.61C49.0003 44.7982 49.0536 44.9824 49.1539 45.1416C49.2542 45.3008 49.3974 45.4285 49.567 45.51L56.06 48.623L54.343 52.204L45 47.391V43C45 42.7348 44.8946 42.4804 44.7071 42.2929C44.5196 42.1054 44.2652 42 44 42C43.7348 42 43.4804 42.1054 43.2929 42.2929C43.1054 42.4804 43 42.7348 43 43V56H39C37.6744 56.0016 36.4036 56.5289 35.4662 57.4662C34.5289 58.4036 34.0016 59.6744 34 61C34 61.2652 34.1054 61.5196 34.2929 61.7071C34.4804 61.8946 34.7348 62 35 62H44C44.2652 62 44.5196 61.8946 44.7071 61.7071C44.8946 61.5196 45 61.2652 45 61V49.64L53.846 54.2C53.8058 55.1744 54.0525 56.1392 54.5556 56.9747C55.0587 57.8102 55.796 58.4797 56.676 58.9C56.9151 59.0147 57.19 59.0297 57.4401 58.9417C57.6903 58.8538 57.8953 58.6701 58.01 58.431L61.9 50.317C62.0148 50.0781 62.0301 49.8035 61.9425 49.5534C61.855 49.3032 61.6717 49.0981 61.433 48.983ZM58.38 10.8C58.5327 10.8763 58.6678 10.9835 58.7768 11.1148C58.8859 11.2461 58.9665 11.3986 59.0135 11.5626C59.0605 11.7267 59.0729 11.8987 59.0499 12.0678C59.0269 12.2369 58.9691 12.3994 58.88 12.545L57.775 14.354L55.98 12.566L56.78 11.266C56.9419 11.0043 57.1951 10.8119 57.4905 10.7258C57.786 10.6398 58.1029 10.6662 58.38 10.8V10.8ZM41.171 13C41.3776 12.4147 41.7606 11.9079 42.2672 11.5494C42.7739 11.1909 43.3793 10.9984 44 10.9984C44.6207 10.9984 45.2261 11.1909 45.7328 11.5494C46.2394 11.9079 46.6224 12.4147 46.829 13H41.171ZM46 22.576V23C46 23.5304 45.7893 24.0391 45.4142 24.4142C45.0391 24.7893 44.5304 25 44 25C43.4696 25 42.9609 24.7893 42.5858 24.4142C42.2107 24.0391 42 23.5304 42 23V22.576C42.6297 22.8556 43.311 23 44 23C44.689 23 45.3703 22.8556 46 22.576ZM28.987 11.57C29.0527 11.3405 29.1838 11.135 29.3642 10.9786C29.5447 10.8222 29.7667 10.7217 30.0032 10.6893C30.2398 10.6569 30.4807 10.6939 30.6965 10.796C30.9124 10.898 31.0939 11.0606 31.219 11.264L32.019 12.564L30.219 14.364L29.114 12.554C29.0249 12.4081 28.9676 12.2451 28.9457 12.0755C28.9238 11.906 28.9379 11.7337 28.987 11.57V11.57ZM6.061 50C6.06024 50.6203 5.86762 51.2251 5.50956 51.7316C5.15149 52.2381 4.64551 52.6214 4.061 52.829V46H6.061V50ZM36.626 24.455C36.7893 24.7302 36.8465 25.0556 36.7866 25.37C36.7267 25.6844 36.554 25.9661 36.301 26.162L35.338 26.952L33.9 24.935L34.827 24.188C34.9599 24.0802 35.1137 24.0011 35.2788 23.9559C35.4438 23.9107 35.6165 23.9004 35.7857 23.9255C35.955 23.9506 36.1172 24.0106 36.262 24.1018C36.4069 24.1929 36.5312 24.3132 36.627 24.455H36.626ZM19.061 11H22.061V13H16.232C16.4396 12.4155 16.8229 11.9095 17.3294 11.5514C17.8359 11.1934 18.4407 11.0008 19.061 11ZM21.061 22.576V23C21.061 23.5304 20.8503 24.0391 20.4752 24.4142C20.1001 24.7893 19.5914 25 19.061 25C18.5306 25 18.0219 24.7893 17.6468 24.4142C17.2717 24.0391 17.061 23.5304 17.061 23V22.576C17.6907 22.8556 18.372 23 19.061 23C19.75 23 20.4313 22.8556 21.061 22.576V22.576ZM4.085 11.459C4.15576 11.2784 4.26805 11.1171 4.41277 10.988C4.55749 10.8589 4.73057 10.7657 4.918 10.716C5.18798 10.6563 5.46996 10.6842 5.72298 10.7957C5.97601 10.9072 6.18689 11.0965 6.325 11.336L7.081 12.566L5.287 14.36L4.181 12.551C4.08143 12.3889 4.02093 12.2058 4.00427 12.0163C3.98761 11.8268 4.01525 11.636 4.085 11.459V11.459ZM26.89 60H20.061V58H24.061C24.6813 58.0008 25.2861 58.1934 25.7926 58.5514C26.2991 58.9095 26.6824 59.4155 26.89 60V60ZM27.09 28.812L25.8 27.393C25.6641 27.244 25.4864 27.1395 25.2901 27.0933C25.0938 27.0471 24.8881 27.0613 24.7001 27.1341C24.512 27.2069 24.3503 27.3348 24.2363 27.5011C24.1222 27.6674 24.0611 27.8643 24.061 28.066V36H14.044C13.8725 30.9265 12.3911 25.9836 9.744 21.652L6.359 16.116L8.159 14.316L10.589 18.266C11.6533 19.9798 13.2127 21.3303 15.061 22.139V23C15.061 24.0609 15.4824 25.0783 16.2326 25.8284C16.9827 26.5786 18.0001 27 19.061 27C20.1219 27 21.1393 26.5786 21.8894 25.8284C22.6396 25.0783 23.061 24.0609 23.061 23H24.017C24.6244 22.9985 25.2241 23.136 25.7701 23.4021C26.3161 23.6681 26.7939 24.0557 27.167 24.535L29.335 27.306C29.4167 27.4103 29.5183 27.4974 29.634 27.5621C29.7496 27.6268 29.8769 27.6679 30.0086 27.683C30.1403 27.6981 30.2736 27.6868 30.4009 27.6499C30.5282 27.613 30.6468 27.5512 30.75 27.468L32.336 26.191L33.789 28.225L32.589 29.21C31.7965 29.8608 30.7843 30.1824 29.7615 30.1083C28.7387 30.0342 27.7835 29.5702 27.093 28.812H27.09ZM43 60H36.171C36.3786 59.4155 36.7619 58.9095 37.2684 58.5514C37.7749 58.1934 38.3797 58.0008 39 58H43V60ZM56.713 56.513C56.2753 56.073 55.9846 55.5084 55.8807 54.8965C55.7769 54.2847 55.865 53.6557 56.133 53.096L57.863 49.489L59.663 50.354L56.713 56.513Z" fill="#023E8A"></path>
</svg>